<svg xmlns="http://www.w3.org/2000/svg" viewBox="0 0 480 360" role="img" aria-labelledby="locTitle" width="480" height="360">
  <title id="locTitle">A location pin marking a residential building</title>
  <path d="M64 100 C36 142 50 212 112 244 C172 274 206 312 282 300 C366 287 428 240 418 178 C409 120 360 92 292 88 C208 83 96 64 64 100 Z" fill="#e7edf7"/>
  <!-- map card -->
  <g>
    <rect x="96" y="120" width="200" height="150" rx="12" fill="#ffffff" stroke="#cdd8ea" stroke-width="3"/>
    <path d="M96 196 C140 178 150 214 196 200 C240 188 256 214 296 198" stroke="#8aa6dd" stroke-width="3" fill="none"/>
    <path d="M120 120 V270 M196 120 V270" stroke="#e1e6ef" stroke-width="3"/>
    <path d="M96 156 H296 M96 232 H296" stroke="#e1e6ef" stroke-width="3"/>
    <!-- building inside map -->
    <rect x="150" y="158" width="40" height="60" fill="#2f5aa8"/>
    <path d="M150 158h40M158 170h24M158 184h24M158 198h24" stroke="#ffffff" stroke-width="2"/>
  </g>
  <!-- big pin -->
  <g>
    <path d="M330 110 a52 52 0 0 1 52 52 c0 40 -52 86 -52 86 s-52 -46 -52 -86 a52 52 0 0 1 52 -52 Z" fill="#2f5aa8"/>
    <circle cx="330" cy="162" r="22" fill="#ffffff"/>
    <path d="M318 162 l8 8 l16 -18" fill="none" stroke="#b3873f" stroke-width="5" stroke-linecap="round" stroke-linejoin="round"/>
  </g>
  <ellipse cx="330" cy="262" rx="34" ry="8" fill="#d8e0ee"/>
  <circle cx="120" cy="124" r="6" fill="#b3873f"/>
  <circle cx="392" cy="120" r="5" fill="#2f5aa8"/>
</svg>
